<svg id="Layer_1" data-name="Layer 1" xmlns="http://www.w3.org/2000/svg" viewBox="0 0 1080 1080"><defs><style>.cls-1{fill:#da1b20;}.cls-2{fill:#fff;}</style></defs><rect class="cls-1" x="402.03" y="313.44" width="273.5" height="273.5" rx="42.99"/><path class="cls-2" d="M561.94,445.81a23.57,23.57,0,0,0-46.32,0H497.53c1.8-19.81,16.37-35.41,34.85-36.79a6.56,6.56,0,0,0,1.37,1.95,6.79,6.79,0,0,0,4.81,2h0a6.76,6.76,0,0,0,6.8-6.71,6.59,6.59,0,0,0-2-4.76,6.81,6.81,0,0,0-4.8-2h0a6.81,6.81,0,0,0-6.25,4.07c-21.47,1.42-38.4,19.43-40.24,42.23h-9.61c1.9-34.92,28.71-63.17,62.77-65.55a6.77,6.77,0,0,0,6.13,3.82h0a6.76,6.76,0,0,0,6.8-6.72,6.63,6.63,0,0,0-2-4.76,6.85,6.85,0,0,0-4.8-2h0a6.83,6.83,0,0,0-6.3,4.17c-37,2.47-66.17,33.14-68.08,71H466.47c2-51.52,43.59-92.92,96.42-95.12l.23.26a6.83,6.83,0,0,0,4.81,2h0a6.76,6.76,0,0,0,6.8-6.71,6.63,6.63,0,0,0-2-4.76,6.81,6.81,0,0,0-4.8-2h0a6.82,6.82,0,0,0-5.21,2.4,110,110,0,0,0-74.42,32.89,106.37,106.37,0,0,0-30.71,74.81v5.05l58,.05a23.57,23.57,0,0,0,46.3,0l18.19,0c-1.8,19.81-16.37,35.41-34.85,36.79a6.59,6.59,0,0,0-1.38-2,6.84,6.84,0,0,0-4.8-2h0a6.81,6.81,0,0,0-4.8,2,6.63,6.63,0,0,0-2,4.76h0a6.59,6.59,0,0,0,2,4.76,6.81,6.81,0,0,0,4.8,2h0a6.81,6.81,0,0,0,6.25-4.07c21.47-1.43,38.4-19.43,40.24-42.24h9.62c-1.91,34.92-28.72,63.18-62.78,65.56a6.89,6.89,0,0,0-1.33-1.86,6.79,6.79,0,0,0-4.8-2h0a6.76,6.76,0,0,0-6.8,6.71,6.63,6.63,0,0,0,2,4.76,6.77,6.77,0,0,0,4.8,2h0a6.81,6.81,0,0,0,6.3-4.17c37-2.46,66.17-33.13,68.08-71h10.52c-2,51.52-43.59,92.92-96.42,95.12-.08-.09-.15-.18-.23-.26a6.83,6.83,0,0,0-4.8-2h0a6.77,6.77,0,0,0-6.8,6.72h0a6.77,6.77,0,0,0,6.8,6.72h0a6.85,6.85,0,0,0,5.21-2.4,109.93,109.93,0,0,0,74.42-32.9,106.34,106.34,0,0,0,30.71-74.81v-5Zm-23.38-43h0a3.54,3.54,0,0,1,2.49,1,3.38,3.38,0,0,1,1,2.41,3.46,3.46,0,0,1-3.5,3.41,3.53,3.53,0,0,1-2.49-1,3.38,3.38,0,0,1-1-2.4A3.45,3.45,0,0,1,538.56,402.79Zm12.81-28.88a3.51,3.51,0,0,1,2.48,1,3.33,3.33,0,0,1,1,2.4,3.46,3.46,0,0,1-3.5,3.41h0a3.53,3.53,0,0,1-2.48-1,3.34,3.34,0,0,1-1-2.4A3.46,3.46,0,0,1,551.37,373.91Zm16.56-31.18a3.47,3.47,0,0,1,2.48,1,3.31,3.31,0,0,1,1,2.4,3.46,3.46,0,0,1-3.5,3.41h0a3.53,3.53,0,0,1-2.49-1,3.38,3.38,0,0,1-1-2.4A3.45,3.45,0,0,1,567.93,342.73ZM539.09,497.64h0a3.55,3.55,0,0,1-2.49-1,3.34,3.34,0,0,1-1-2.4h0a3.31,3.31,0,0,1,1-2.4,3.51,3.51,0,0,1,2.48-1h0a3.53,3.53,0,0,1,2.49,1,3.36,3.36,0,0,1,1,2.4A3.46,3.46,0,0,1,539.09,497.64Zm-12.81,28.88h0a3.51,3.51,0,0,1-2.48-1,3.35,3.35,0,0,1-1-2.41,3.46,3.46,0,0,1,3.5-3.41h0a3.52,3.52,0,0,1,2.49,1,3.38,3.38,0,0,1,1,2.41A3.46,3.46,0,0,1,526.28,526.52Zm12.5-58.21a18.13,18.13,0,1,1,18.13-18.12A18.15,18.15,0,0,1,538.78,468.31ZM509.72,557.7h0a3.41,3.41,0,1,1,0-6.82h0a3.53,3.53,0,0,1,2.49,1,3.36,3.36,0,0,1,1,2.4A3.46,3.46,0,0,1,509.72,557.7Z"/><path class="cls-1" d="M303.05,707.42V686.48H275.93v20.94H256.4V660.77c0-22.57,13.56-32.33,33.09-32.33,21.26,0,33.09,10.09,33.09,32.33v46.65Zm0-46.65c0-11.07-5.53-14.54-13.56-14.54-8.25,0-13.56,4.12-13.56,14.54v8.14h27.12Z"/><path class="cls-1" d="M374.65,661.31c10.64.54,18.45,7.38,18.45,18.66v27.45H373.57V683.23c0-4.24-2.28-6.4-6.62-6.4H352.52v30.59H333V629.74h19.53v35.48l23-35.48H398Z"/><path class="cls-1" d="M405,707.42V629.74h19.53v77.68Z"/><path class="cls-1" d="M464.92,707.42c-18.55,0-29.51-8.68-29.51-28.21V629.74h19.53v47.74c0,9.33,4.56,12.26,11.61,12.26h23.54v17.68Z"/><path class="cls-1" d="M497,707.42V629.74h19.53v77.68Z"/><path d="M574.5,707.42V660.77c0-10.42-5-14.54-13.78-14.54-8.25,0-13.78,4.12-13.78,14.54v46.65H527.41V660.77c0-22.57,13.78-32.33,33.31-32.33,21.37,0,33.31,10.09,33.31,32.33v46.65Z"/><path d="M639.59,708.72c-25,0-37.53-15.4-37.53-40.14,0-26.15,13.56-40.14,37.53-40.14,24.2,0,37.54,14,37.54,40.14C677.13,692.66,664.76,708.72,639.59,708.72Zm0-62.6c-11.28,0-17.14,7-17.14,22.46,0,15,6.08,22.46,17.14,22.46,11.4,0,17.15-7.38,17.15-22.46C656.74,652.85,651.2,646.12,639.59,646.12Z"/><path d="M716.63,710.89l-41.12-81.15h22.35l18.77,43.5,18.76-43.5h22.35Z"/><path d="M804.07,707.42V686.48H777v20.94H757.42V660.77c0-22.57,13.56-32.33,33.09-32.33,21.26,0,33.09,10.09,33.09,32.33v46.65Zm0-46.65c0-11.07-5.53-14.54-13.56-14.54-8.25,0-13.56,4.12-13.56,14.54v8.14h27.12Z"/></svg>